<svg xmlns="http://www.w3.org/2000/svg" version="1.1" xmlns:xlink="http://www.w3.org/1999/xlink" xmlns:svgjs="http://svgjs.com/svgjs" width="1680" height="968" preserveAspectRatio="none" viewBox="0 0 1680 968"><g mask="url(&quot;#SvgjsMask1025&quot;)" fill="none"><rect width="1680" height="968" x="0" y="0" fill="rgba(81, 46, 95, 1)"></rect><path d="M0,747.157C135.306,721.525,226.994,602.903,325.837,507.012C407.152,428.126,471.241,339.584,523.652,239.144C578.773,133.511,634.314,27.312,638.29,-91.772C642.755,-225.49,643.721,-381.452,547.478,-474.392C451.257,-567.31,292.513,-522.422,161.998,-551.715C42.301,-578.58,-65.279,-646.526,-187.747,-639.408C-330.328,-631.121,-476.345,-599.109,-586.508,-508.212C-705.847,-409.744,-797.103,-270.913,-819.825,-117.873C-842.589,35.445,-782.412,187.193,-710.112,324.297C-640.771,455.789,-543.897,571.52,-416.173,647.578C-291.083,722.067,-143.045,774.255,0,747.157" fill="#41254c"></path><path d="M1680 1638.616C1826.187 1639.7469999999998 1980.286 1704.629 2109.687 1636.605 2241.4139999999998 1567.358 2332.585 1425.5059999999999 2362.65 1279.7559999999999 2390.675 1143.894 2311.188 1014.687 2264.9539999999997 883.896 2227.531 778.032 2192.1530000000002 672.788 2118.217 588.283 2044.531 504.064 1953.847 432.336 1845.473 404.451 1738.926 377.03599999999994 1631.887 415.95899999999995 1523.58 435.28099999999995 1401.039 457.143 1270.733 453.53099999999995 1168.924 525.15 1053.2849999999999 606.498 945.354 719.59 921.357 858.924 897.211 999.123 986.079 1128.54 1042.513 1259.1309999999999 1100.1689999999999 1392.551 1129.675 1555.642 1254.566 1629.988 1378.966 1704.0410000000002 1535.231 1637.496 1680 1638.616" fill="#613772"></path></g><defs><mask id="SvgjsMask1025"><rect width="1680" height="968" fill="#ffffff"></rect></mask></defs></svg>